<svg width="270" height="250" viewBox="0 0 270 250" fill="none" xmlns="http://www.w3.org/2000/svg">
<path d="M102.192 237.047C87.8073 241.95 73.2835 244.216 57.7917 241.384C40.5244 238.227 25.5474 224.011 17.0849 209.833C13.9406 204.568 11.4373 198.684 11.7645 192.62C12.5255 178.613 26.2807 177.048 37.9566 179.313C44.5383 180.587 50.5818 183.487 56.5566 186.36C66.4762 191.132 78.1122 193.479 87.0055 200.094C89.9896 202.32 92.2307 204.994 95.6983 206.613C101.093 209.134 107.25 210.325 112.79 212.619C117.52 214.588 122.808 217.827 122.814 222.783C122.815 227.866 117.303 231.105 112.46 233.129C109.031 234.57 105.618 235.885 102.192 237.047Z" fill="url(#paint0_linear)"/>
<path d="M49.2461 56.3693C72.8099 22.9612 121.535 9.54712 161.031 22.1077C180.076 28.1677 196.037 40.7863 210.758 53.8855C223.735 65.4308 236.324 77.8833 245.185 92.7254C251.236 102.856 255.567 115 258.625 126.338C263.198 143.313 259.045 165.186 236.236 163.584C230.884 163.208 226.254 161.357 221.249 159.737C217.2 158.424 213.233 159.212 209.029 158.57C198.449 156.959 188.256 153.211 178.618 148.822C158.975 139.868 141.027 127.703 120.827 119.857C104.272 113.436 86.593 110.12 68.7433 110.09C61.213 110.078 53.295 110.585 46.5589 107.346C29.9562 99.3542 37.4222 77.8053 43.6228 65.6833C45.2655 62.4544 47.1447 59.3419 49.2461 56.3693V56.3693Z" fill="url(#paint1_linear)"/>
<path d="M233.999 61.4121C237.879 64.7923 253.12 74.0202 253.414 63.1912C253.483 60.4935 252.211 57.8741 250.48 55.8984C248.5 53.6307 246.255 52.4412 244.708 49.7993C242.816 46.6094 240.662 43.6113 238.274 40.8439C233.393 35.0839 227.694 29.7619 220.779 27.3907C215.929 25.7295 207.718 26.1473 205.414 32.1273C202.057 40.8325 216.409 42.4276 220.786 45.6001C224.939 48.6029 227.292 53.7626 230.582 57.8633C231.622 59.1563 232.766 60.3443 233.999 61.4121V61.4121Z" fill="url(#paint2_linear)"/>
<path d="M162.264 50.8234C170.481 55.4776 176.645 62.4442 184.137 68.0549C196.61 77.3946 213.706 79.3053 228.01 85.8004C242.594 92.4275 253.608 102.726 258.587 117.57C265.02 136.73 265.631 159.515 260.166 179.213C254.147 200.895 240.013 215.297 219.347 224.902C198.693 234.501 175.813 238.981 152.993 239.905C150.791 239.996 148.592 240.045 146.385 240.058C96.8105 240.335 30.8237 223.548 13.9456 172.314C13.7909 171.846 13.6426 171.378 13.4939 170.903C11.7548 165.195 10.7322 159.307 10.4481 153.365C9.38645 132.3 13.2187 109.05 20.8952 89.3025C26.0584 76.0078 37.1765 64.7666 48.8919 56.757C65.352 45.5046 85.4358 42.6328 105.425 41.2827C120.227 40.2836 136.874 39.9185 150.872 45.3655C154.806 46.9084 158.614 48.7328 162.264 50.8234Z" fill="url(#paint3_linear)"/>
<path d="M67.6906 81.9907C67.6906 81.9907 118.788 150.339 131.57 155.99C144.356 161.645 160.384 160.372 161.785 166.929C163.187 173.489 134.951 162.393 139.456 172.512C143.96 182.635 161.514 194.188 161.596 204.379C161.682 214.573 133.664 182.499 133.664 182.499C133.664 182.499 160.063 211.844 151.321 212.538C142.576 213.232 119.965 184.541 119.965 184.541C119.965 184.541 145.258 222.178 136.873 218.74C128.492 215.303 50.7605 125.254 38.7735 115.725C26.7865 106.199 67.6906 81.9907 67.6906 81.9907Z" fill="#E27B5A"/>
<path d="M216.332 98.5814C216.332 98.5814 158.053 160.877 144.725 165.087C131.397 169.294 115.608 166.264 113.493 172.624C111.381 178.987 140.662 171.075 135.074 180.64C129.489 190.201 110.775 199.748 109.573 209.87C108.375 219.99 139.739 191.202 139.739 191.202C139.739 191.202 110.279 217.457 118.893 219.11C127.509 220.766 153.131 194.744 153.131 194.744C153.131 194.744 123.861 229.365 132.57 226.872C141.279 224.378 228.416 143.45 241.373 135.302C254.333 127.154 216.332 98.5814 216.332 98.5814Z" fill="#FFCEB0"/>
<path d="M166.716 141.837C166.716 141.837 184.641 175.84 201.12 179.458C217.596 183.076 253.189 150.799 260.956 134.811C268.725 118.826 230.86 70.4525 222.757 63.4948C211.051 62.0632 158.406 111.527 166.716 141.837Z" fill="#FB4C47"/>
<path d="M55.4935 49C55.4935 49 114.449 107.208 111.656 122.321C108.865 137.438 86.3534 155.545 68.1978 161.475C50.0421 167.402 10.3502 143.526 10.3502 126.114C7.45585 96.544 22.5045 65.8143 55.4935 49Z" fill="#128E5A"/>
<defs>
<linearGradient id="paint0_linear" x1="10.4876" y1="194.554" x2="24.3795" y2="244.693" gradientUnits="userSpaceOnUse">
<stop stop-color="#FFD0D0"/>
<stop offset="1" stop-color="#FFF8F8"/>
</linearGradient>
<linearGradient id="paint1_linear" x1="289.245" y1="61.2352" x2="122.887" y2="21.3057" gradientUnits="userSpaceOnUse">
<stop stop-color="#FFF8F8"/>
<stop offset="1" stop-color="#FFD0D0"/>
</linearGradient>
<linearGradient id="paint2_linear" x1="253.81" y1="63.0013" x2="197.205" y2="37.8705" gradientUnits="userSpaceOnUse">
<stop stop-color="#FFD0D0"/>
<stop offset="1" stop-color="#FFF7F7"/>
</linearGradient>
<linearGradient id="paint3_linear" x1="240.876" y1="218.289" x2="15.0581" y2="82.3595" gradientUnits="userSpaceOnUse">
<stop stop-color="#FFCFCF"/>
<stop offset="1" stop-color="#FFF8F8"/>
</linearGradient>
</defs>
</svg>
