<svg width="1920" height="975" viewBox="0 0 1920 975" fill="none" xmlns="http://www.w3.org/2000/svg">
<path d="M2008.75 577.213C2005.23 580.093 2004.61 585.351 2006.98 589.775C2002.03 594.812 1996.08 600.228 1989.04 605.588C1985.12 608.563 1981.25 611.229 1977.53 613.602C1976.99 612.94 1976.43 612.279 1975.86 611.625C1973.1 608.448 1970.16 605.522 1967.09 602.831C1967.63 600.058 1968.53 596.853 1970.05 593.457C1972.66 587.558 1976.15 583.239 1979.15 580.26C1983.87 582.531 1989.29 581.524 1991.92 577.624C1994.9 573.228 1993.23 566.829 1988.19 563.344C1983.15 559.85 1976.66 560.567 1973.69 564.963C1970.98 568.97 1972.13 574.639 1976.17 578.258C1974.79 582.296 1972.17 587.652 1967.15 592.238C1964.68 594.503 1962.16 596.083 1959.97 597.196C1954.71 593.443 1949.12 590.317 1943.31 587.846C1943.75 583.885 1944.48 579.453 1945.72 574.707C1947.52 567.826 1949.9 561.944 1952.3 557.126C1957.29 557.928 1962.04 555.515 1963.5 551.115C1965.19 546.067 1961.88 540.306 1956.14 538.25C1950.4 536.194 1944.37 538.638 1942.69 543.691C1941.23 548.076 1943.52 553.007 1947.92 555.563C1946.92 560.92 1945.3 567.064 1942.64 573.605C1940.83 578.059 1938.83 581.999 1936.85 585.386C1931.15 583.45 1925.29 582.112 1919.38 581.387C1916.8 576.079 1914.39 569.36 1913.35 561.429C1912.4 554.001 1912.88 547.55 1913.73 542.573C1918.77 541.812 1922.59 537.94 1922.56 533.202C1922.53 527.826 1917.61 523.375 1911.55 523.271C1905.49 523.144 1900.6 527.4 1900.64 532.768C1900.67 537.506 1904.48 541.533 1909.56 542.486C1910.45 547.37 1911.04 553.877 1910.11 561.368C1909.09 569.633 1906.58 576.227 1904.3 580.833C1897.46 581.178 1890.67 582.323 1884.07 584.295C1883.06 581.747 1882.26 578.988 1881.78 576.017C1881.41 573.652 1881.27 571.409 1881.29 569.327C1886.2 567.699 1889.31 563.104 1888.39 558.375C1887.38 553.081 1881.73 549.603 1875.79 550.614C1869.84 551.624 1865.85 556.727 1866.86 562.028C1867.76 566.68 1872.24 569.931 1877.34 569.963C1878.16 572.12 1878.9 574.449 1879.52 576.938C1880.25 579.79 1880.77 582.557 1881.1 585.242C1880.44 585.465 1879.8 585.687 1879.16 585.931C1871.64 588.667 1864.43 592.525 1857.76 597.51C1854.26 595.561 1850.62 593.186 1846.99 590.271C1839.57 584.316 1834.47 577.961 1831.05 572.827C1834.11 568.899 1834.3 563.538 1831.21 559.983C1827.65 555.887 1821.11 555.745 1816.59 559.671C1812.06 563.604 1811.27 570.113 1814.83 574.21C1817.97 577.825 1823.44 578.351 1827.79 575.725C1832.56 579.563 1838.63 585.465 1843.79 593.945C1846.04 597.687 1847.79 601.371 1849.15 604.894C1843.43 610.467 1838.68 616.676 1834.89 623.334C1833.06 622.755 1831.24 622.051 1829.3 621.051C1825.46 619.064 1822.47 616.673 1820.21 614.489C1822.1 609.534 1820.48 604.001 1816.2 601.58C1811.49 598.922 1805.35 601.048 1802.47 606.334C1799.61 611.612 1801.1 618.05 1805.82 620.702C1809.89 622.991 1815.02 621.719 1818.19 617.936C1821.23 619.266 1824.53 620.982 1827.91 623.251C1829.72 624.442 1831.37 625.701 1832.92 626.99C1829.71 633.308 1827.34 639.969 1825.8 646.822C1822.1 647.106 1818.12 647.17 1813.88 646.878C1804.12 646.203 1795.98 643.88 1789.97 641.584C1790 636.501 1786.87 631.991 1782.28 631C1777.02 629.868 1771.84 633.768 1770.7 639.709C1769.58 645.644 1772.92 651.376 1778.17 652.515C1782.83 653.505 1787.4 650.581 1789.19 645.782C1795.14 645.95 1803.6 647.007 1812.9 651.01C1817.17 652.836 1820.88 654.98 1824.11 657.187C1823.99 658.427 1823.88 659.696 1823.8 660.954C1823.44 667.276 1823.75 673.665 1824.76 679.992C1822.87 680.856 1820.84 681.674 1818.67 682.403C1811.61 684.771 1805.21 685.535 1800.22 685.691C1798.25 680.909 1793.56 677.968 1788.97 678.915C1783.76 679.983 1780.64 685.679 1782 691.632C1783.34 697.591 1788.67 701.547 1793.89 700.463C1798.48 699.522 1801.44 695.006 1801.17 689.882C1805.81 688.061 1811.97 686.238 1819.4 685.589C1821.62 685.395 1823.75 685.333 1825.79 685.348C1827.97 695.141 1831.84 704.691 1837.44 713.546C1834.56 716.522 1831.31 719.571 1827.61 722.589C1822.32 726.9 1817.13 730.318 1812.37 733.042C1808.73 729.034 1803.09 727.928 1799.14 730.679C1794.78 733.708 1794.12 740.231 1797.65 745.254C1801.19 750.269 1807.57 751.886 1811.92 748.864C1815.79 746.168 1816.72 740.714 1814.41 735.998C1818.65 732.468 1823.65 728.79 1829.5 725.283C1833.55 722.848 1837.48 720.822 1841.24 719.09C1842.64 720.992 1844.13 722.842 1845.71 724.657C1849.45 728.969 1853.51 732.843 1857.82 736.264C1856.4 741.6 1853.96 748.376 1849.52 755.496C1845.63 761.736 1841.34 766.439 1837.64 769.865C1833.11 767.42 1827.74 768.103 1824.89 771.773C1821.65 775.951 1822.91 782.435 1827.72 786.241C1832.53 790.048 1839.07 789.738 1842.31 785.559C1845.12 781.937 1844.55 776.612 1841.24 772.777C1844.01 768.092 1847.55 762.876 1852.09 757.539C1857.31 751.409 1862.59 746.592 1867.32 742.845C1874.03 746.908 1881.19 749.985 1888.55 752.1C1888.11 754.598 1887.49 757.224 1886.59 759.962C1884.87 765.195 1882.6 769.494 1880.36 772.937C1875.5 771.388 1870.39 773.109 1868.31 777.278C1865.95 782.028 1868.42 788.177 1873.85 790.996C1877.26 792.763 1881.03 792.808 1883.94 791.408C1885.67 790.591 1887.1 789.267 1887.98 787.498C1888.23 786.979 1888.44 786.426 1888.58 785.865C1889.69 781.682 1887.53 776.876 1883.24 774.236C1884.76 770.306 1886.77 765.979 1889.49 761.481C1891.25 758.585 1893.08 756.002 1894.89 753.684C1899.18 754.594 1903.52 755.167 1907.85 755.414C1908.26 755.442 1908.68 755.462 1909.07 755.474C1910.64 760.489 1912.08 766.983 1912.36 774.593C1912.64 782.045 1911.74 788.424 1910.6 793.366C1905.55 793.8 1901.53 797.378 1901.22 802.067C1900.88 807.42 1905.5 812.191 1911.55 812.724C1917.58 813.265 1922.77 809.356 1923.11 804.011C1923.42 799.363 1919.97 795.151 1915.09 793.783C1914.7 788.427 1914.69 782.014 1915.6 774.888C1916.59 767.226 1918.38 760.627 1920.29 755.259C1928.37 754.568 1936.38 752.738 1944.02 749.76C1945.75 752.211 1947.47 754.981 1949.04 758.097C1952.46 764.878 1954.23 771.159 1955.17 776.097C1950.75 778.586 1948.57 783.562 1950.22 788.027C1952.1 793.089 1958.22 795.581 1963.89 793.592C1969.56 791.61 1972.63 785.887 1970.76 780.802C1969.13 776.394 1964.29 773.929 1959.33 774.684C1956.8 769.945 1954.17 764.024 1952.07 757.035C1951.06 753.619 1950.3 750.363 1949.74 747.282C1955.32 744.618 1960.67 741.313 1965.69 737.321C1969.84 740.518 1974.25 744.304 1978.68 748.778C1985.28 755.43 1990.33 762.003 1994.15 767.732C1991.11 771.649 1990.94 777.002 1994.02 780.549C1997.58 784.646 2004.12 784.786 2008.66 780.845C2013.18 776.919 2013.96 770.419 2010.4 766.323C2007.33 762.79 2002.03 762.2 1997.74 764.63C1992.54 759.888 1986.8 753.94 1981.1 746.677C1977.26 741.774 1974.02 736.987 1971.27 732.497C1976.16 727.906 1980.37 722.852 1983.9 717.456C1984.92 717.815 1985.95 718.209 1986.99 718.632C1993.87 721.408 1999.3 724.894 2003.29 727.994C2001.71 732.765 2003.33 737.978 2007.42 740.317C2012.11 743.018 2018.27 740.934 2021.19 735.678C2024.09 730.425 2022.65 723.973 2017.96 721.281C2013.8 718.889 2008.48 720.264 2005.29 724.271C2000.88 722.717 1994.83 719.842 1988.98 714.519C1988.25 713.863 1987.56 713.198 1986.9 712.521C1990.51 706.143 1993.23 699.352 1995.07 692.336C2000.09 692.236 2005.68 692.471 2011.72 693.266C2021.01 694.484 2028.96 696.739 2035.27 699.034C2035.27 704.079 2038.39 708.542 2042.95 709.534C2048.22 710.655 2053.39 706.761 2054.52 700.82C2055.65 694.888 2052.31 689.159 2047.06 688.016C2042.51 687.043 2038.02 689.821 2036.16 694.432C2029.32 693.82 2021.22 692.556 2012.33 690.082C2006.58 688.482 2001.36 686.619 1996.7 684.663C1997.21 681.581 1997.56 678.475 1997.75 675.337C1998.04 670.213 1997.9 665.049 1997.29 659.921C2002.34 657.565 2008.47 655.208 2015.63 653.454C2022.53 651.751 2028.85 650.981 2034.23 650.702C2036.17 655.391 2040.73 658.325 2045.27 657.463C2050.51 656.485 2053.73 650.845 2052.49 644.872C2051.23 638.893 2045.97 634.858 2040.73 635.836C2036.16 636.694 2033.1 641.126 2033.26 646.216C2028.47 647.928 2022.29 649.587 2014.96 650.25C2007.36 650.942 2000.69 650.397 1995.43 649.5C1994.27 644.681 1992.7 639.921 1990.71 635.272C1992.71 633.659 1994.92 632.051 1997.32 630.538C2003.52 626.632 2009.45 624.26 2014.33 622.794C2017.4 626.935 2022.62 628.632 2026.78 626.582C2031.54 624.24 2033.15 617.909 2030.39 612.434C2027.61 606.967 2021.51 604.43 2016.74 606.779C2012.57 608.83 2010.81 613.984 2012.33 618.928C2008.35 621.843 2002.84 625.153 1995.83 627.613C1993.18 628.536 1990.59 629.244 1988.13 629.768C1986.03 625.679 1983.61 621.706 1980.83 617.892C1983.95 614.687 1987.38 611.402 1991.14 608.12C1997.77 602.327 2004.24 597.567 2010.17 593.681C2014.06 596.862 2019.33 597.273 2022.85 594.408C2026.95 591.05 2027.12 584.478 2023.22 579.741C2019.32 574.997 2012.84 573.864 2008.75 577.213Z" fill="#FFE1E1"/>
<path d="M1841.69 842.818C1839.95 844.001 1839.45 846.405 1840.36 848.549C1837.87 850.668 1834.91 852.922 1831.44 855.103C1829.51 856.313 1827.62 857.383 1825.8 858.323C1825.58 857.994 1825.35 857.665 1825.11 857.34C1823.97 855.755 1822.73 854.28 1821.42 852.907C1821.78 851.648 1822.32 850.205 1823.16 848.699C1824.61 846.083 1826.39 844.234 1827.9 842.983C1829.98 844.231 1832.53 843.993 1833.9 842.301C1835.45 840.395 1834.94 837.368 1832.75 835.545C1830.57 833.719 1827.55 833.778 1825.99 835.685C1824.58 837.423 1824.88 840.091 1826.6 841.933C1825.8 843.741 1824.37 846.106 1821.87 848.014C1820.64 848.957 1819.41 849.582 1818.36 850.004C1816.08 848.049 1813.63 846.37 1811.04 844.984C1811.4 843.172 1811.92 841.155 1812.69 839.014C1813.79 835.909 1815.14 833.291 1816.44 831.166C1818.71 831.746 1821 830.83 1821.85 828.858C1822.84 826.596 1821.54 823.795 1818.97 822.604C1816.41 821.413 1813.52 822.289 1812.54 824.554C1811.69 826.519 1812.55 828.893 1814.48 830.259C1813.8 832.693 1812.8 835.464 1811.31 838.375C1810.29 840.357 1809.21 842.094 1808.16 843.576C1805.6 842.442 1802.95 841.578 1800.25 840.994C1799.28 838.434 1798.44 835.227 1798.28 831.519C1798.14 828.046 1798.62 825.085 1799.22 822.821C1801.58 822.681 1803.49 821.052 1803.67 818.861C1803.88 816.376 1801.78 814.112 1798.99 813.81C1796.2 813.497 1793.77 815.258 1793.57 817.74C1793.39 819.931 1794.99 821.952 1797.29 822.606C1797.51 824.9 1797.52 827.932 1796.78 831.354C1795.98 835.131 1794.55 838.073 1793.31 840.106C1790.14 839.978 1786.96 840.222 1783.83 840.856C1783.47 839.636 1783.21 838.327 1783.11 836.934C1783.03 835.826 1783.06 834.783 1783.15 833.822C1785.49 833.276 1787.11 831.283 1786.87 829.059C1786.62 826.57 1784.16 824.726 1781.37 824.944C1778.58 825.161 1776.53 827.351 1776.79 829.843C1777.01 832.031 1778.95 833.721 1781.3 833.95C1781.59 834.981 1781.84 836.089 1782.03 837.265C1782.25 838.614 1782.38 839.914 1782.42 841.168C1782.11 841.244 1781.8 841.32 1781.5 841.406C1777.91 842.354 1774.43 843.835 1771.15 845.858C1769.61 844.81 1768.03 843.56 1766.47 842.06C1763.28 838.997 1761.18 835.846 1759.81 833.331C1761.39 831.644 1761.69 829.174 1760.41 827.402C1758.93 825.359 1755.91 825.019 1753.67 826.643C1751.42 828.271 1750.79 831.245 1752.27 833.288C1753.57 835.091 1756.07 835.563 1758.19 834.532C1760.24 836.506 1762.8 839.489 1764.84 843.624C1765.73 845.448 1766.39 847.224 1766.87 848.909C1764.01 851.244 1761.56 853.914 1759.54 856.831C1758.72 856.487 1757.91 856.085 1757.05 855.541C1755.36 854.462 1754.08 853.232 1753.12 852.127C1754.2 849.917 1753.67 847.292 1751.79 845.994C1749.73 844.568 1746.8 845.292 1745.26 847.614C1743.73 849.933 1744.15 852.971 1746.23 854.394C1748.01 855.623 1750.43 855.25 1752.05 853.636C1753.4 854.378 1754.85 855.309 1756.32 856.5C1757.11 857.126 1757.82 857.777 1758.49 858.438C1756.75 861.223 1755.38 864.202 1754.39 867.303C1752.68 867.28 1750.84 867.142 1748.89 866.829C1744.41 866.107 1740.74 864.692 1738.06 863.378C1738.28 861.031 1737.02 858.816 1734.94 858.165C1732.56 857.421 1730.01 859.005 1729.24 861.703C1728.48 864.399 1729.79 867.188 1732.17 867.934C1734.28 868.588 1736.51 867.429 1737.53 865.286C1740.27 865.613 1744.13 866.457 1748.27 868.697C1750.16 869.72 1751.79 870.867 1753.2 872.023C1753.09 872.591 1752.98 873.172 1752.9 873.75C1752.48 876.657 1752.36 879.622 1752.57 882.588C1751.66 882.908 1750.69 883.201 1749.66 883.447C1746.31 884.245 1743.32 884.329 1741.01 884.192C1740.29 881.899 1738.25 880.343 1736.09 880.588C1733.64 880.863 1731.97 883.363 1732.35 886.172C1732.74 888.982 1735.03 891.034 1737.49 890.752C1739.64 890.51 1741.2 888.547 1741.28 886.168C1743.49 885.521 1746.42 884.938 1749.87 884.95C1750.9 884.953 1751.89 885.014 1752.83 885.107C1753.44 889.723 1754.84 894.299 1757.07 898.626C1755.62 899.88 1754 901.153 1752.16 902.392C1749.54 904.162 1747.01 905.524 1744.7 906.583C1743.18 904.578 1740.63 903.83 1738.69 904.935C1736.56 906.152 1735.99 909.139 1737.41 911.608C1738.84 914.074 1741.73 915.09 1743.85 913.875C1745.75 912.792 1746.4 910.311 1745.53 908.035C1747.63 906.581 1750.09 905.092 1752.93 903.716C1754.9 902.762 1756.79 901.99 1758.6 901.348C1759.17 902.285 1759.78 903.203 1760.44 904.108C1761.99 906.258 1763.71 908.218 1765.56 909.98C1764.69 912.387 1763.29 915.415 1760.95 918.519C1758.9 921.239 1756.73 923.232 1754.88 924.66C1752.89 923.34 1750.38 923.43 1748.92 925.007C1747.25 926.801 1747.57 929.85 1749.64 931.811C1751.71 933.772 1754.74 933.904 1756.4 932.109C1757.85 930.553 1757.8 928.068 1756.43 926.157C1757.9 924.108 1759.74 921.847 1762.06 919.571C1764.71 916.958 1767.35 914.953 1769.68 913.42C1772.62 915.579 1775.8 917.302 1779.11 918.588C1778.81 919.725 1778.41 920.912 1777.89 922.139C1776.88 924.485 1775.66 926.377 1774.49 927.873C1772.3 926.954 1769.87 927.535 1768.74 929.374C1767.46 931.469 1768.35 934.415 1770.75 935.945C1772.25 936.905 1773.99 937.084 1775.39 936.56C1776.22 936.254 1776.93 935.703 1777.41 934.922C1777.55 934.693 1777.67 934.446 1777.76 934.193C1778.44 932.306 1777.64 929.995 1775.76 928.595C1776.62 926.843 1777.72 924.927 1779.16 922.963C1780.1 921.699 1781.04 920.582 1781.97 919.587C1783.92 920.187 1785.9 920.634 1787.89 920.93C1788.07 920.96 1788.27 920.987 1788.45 921.009C1788.97 923.392 1789.37 926.454 1789.2 929.983C1789.02 933.438 1788.35 936.348 1787.62 938.584C1785.27 938.572 1783.27 940.057 1782.94 942.211C1782.56 944.67 1784.5 947.069 1787.28 947.569C1790.04 948.072 1792.59 946.484 1792.97 944.028C1793.3 941.893 1791.87 939.802 1789.68 938.965C1789.72 936.474 1789.97 933.51 1790.68 930.255C1791.44 926.756 1792.54 923.782 1793.64 921.381C1797.4 921.401 1801.17 920.891 1804.82 919.836C1805.52 921.041 1806.2 922.394 1806.8 923.899C1808.1 927.177 1808.67 930.154 1808.9 932.475C1806.76 933.44 1805.55 935.647 1806.13 937.78C1806.8 940.198 1809.52 941.607 1812.22 940.926C1814.92 940.248 1816.57 937.732 1815.91 935.303C1815.33 933.198 1813.2 931.856 1810.88 931.996C1809.9 929.7 1808.93 926.854 1808.24 923.536C1807.91 921.915 1807.69 920.379 1807.56 918.931C1810.24 917.935 1812.85 916.632 1815.33 914.998C1817.12 916.65 1819 918.584 1820.86 920.838C1823.64 924.189 1825.71 927.438 1827.24 930.246C1825.68 931.929 1825.38 934.395 1826.66 936.163C1828.14 938.206 1831.15 938.545 1833.41 936.915C1835.65 935.291 1836.28 932.32 1834.8 930.277C1833.53 928.516 1831.1 928.021 1829.02 928.963C1826.81 926.554 1824.4 923.564 1822.07 919.968C1820.49 917.541 1819.19 915.193 1818.1 913.003C1820.54 911.087 1822.69 908.928 1824.54 906.583C1825 906.791 1825.46 907.017 1825.92 907.256C1828.98 908.827 1831.35 910.666 1833.07 912.266C1832.15 914.405 1832.68 916.882 1834.48 918.135C1836.53 919.579 1839.46 918.875 1841.02 916.569C1842.57 914.263 1842.17 911.221 1840.11 909.78C1838.29 908.5 1835.77 908.912 1834.14 910.63C1832.17 909.727 1829.49 908.144 1827 905.439C1826.69 905.105 1826.4 904.768 1826.13 904.428C1828.05 901.632 1829.58 898.608 1830.71 895.443C1833.04 895.608 1835.61 895.951 1838.36 896.572C1842.6 897.525 1846.18 898.901 1849.01 900.227C1848.8 902.558 1850.06 904.751 1852.13 905.401C1854.51 906.14 1857.06 904.558 1857.82 901.86C1858.58 899.166 1857.27 896.379 1854.89 895.63C1852.83 894.989 1850.65 896.084 1849.6 898.137C1846.47 897.567 1842.78 896.643 1838.78 895.126C1836.19 894.146 1833.85 893.066 1831.78 891.966C1832.14 890.563 1832.42 889.142 1832.64 887.7C1832.98 885.345 1833.12 882.952 1833.05 880.557C1835.48 879.68 1838.41 878.849 1841.78 878.339C1845.04 877.842 1847.98 877.751 1850.48 877.848C1851.19 880.096 1853.18 881.644 1855.31 881.436C1857.76 881.204 1859.48 878.733 1859.15 875.921C1858.81 873.105 1856.54 871.019 1854.08 871.251C1851.94 871.456 1850.35 873.376 1850.22 875.734C1847.93 876.324 1845.01 876.831 1841.6 876.83C1838.07 876.831 1835.01 876.299 1832.61 875.663C1832.27 873.388 1831.74 871.122 1831.01 868.89C1832 868.229 1833.08 867.579 1834.25 866.98C1837.27 865.436 1840.11 864.589 1842.42 864.116C1843.67 866.158 1846.01 867.162 1848.02 866.389C1850.31 865.507 1851.31 862.649 1850.25 860.003C1849.19 857.36 1846.48 855.931 1844.18 856.817C1842.17 857.589 1841.15 859.897 1841.66 862.246C1839.7 863.425 1837.02 864.724 1833.69 865.566C1832.42 865.881 1831.2 866.1 1830.04 866.239C1829.24 864.261 1828.28 862.323 1827.15 860.444C1828.72 859.094 1830.44 857.72 1832.31 856.361C1835.6 853.963 1838.78 852.035 1841.68 850.488C1843.35 852.121 1845.76 852.532 1847.51 851.356C1849.53 849.977 1849.88 846.947 1848.27 844.594C1846.66 842.238 1843.71 841.442 1841.69 842.818Z" fill="#FFE1E1"/>
<g opacity="0.62">
<path d="M414.319 770.925C376.696 787.086 338.219 795.929 296.225 790.756C249.418 784.986 206.734 748.038 181.5 710.06C172.124 695.954 164.353 680.015 164.127 663.082C163.62 623.965 200.165 617.204 231.839 621.469C249.694 623.865 266.402 630.88 282.922 637.83C310.349 649.378 341.931 653.876 366.944 670.731C375.339 676.405 381.825 683.456 391.404 687.358C406.305 693.431 423.007 695.668 438.258 701.086C451.281 705.739 466.027 713.828 466.946 727.621C467.871 741.767 453.701 751.746 441.1 758.224C432.183 762.836 423.283 767.091 414.319 770.925Z" fill="url(#paint0_linear)"/>
<path d="M239.723 277.325C296.746 180.226 424.773 134.377 532.805 162.432C584.899 175.969 629.928 208.299 671.724 242.184C708.566 272.048 744.536 304.505 770.96 344.264C789.002 371.402 802.804 404.444 813.052 435.464C828.378 481.91 821.234 543.512 759.87 543.038C745.472 542.929 732.739 538.585 719.043 534.952C707.964 532.005 697.484 534.89 686.113 533.84C657.49 531.203 629.518 522.555 602.914 512.023C548.694 490.536 498.428 459.817 442.915 441.511C397.423 426.532 349.485 420.395 301.686 423.429C281.521 424.713 260.413 427.508 241.789 419.669C195.883 400.33 211.958 339.051 226.358 304.23C230.17 294.956 234.636 285.965 239.723 277.325Z" fill="url(#paint1_linear)"/>
<path d="M735.327 259.067C746.328 267.797 788.815 290.815 787.633 260.625C787.328 253.105 783.447 246.037 778.453 240.841C772.739 234.876 766.511 231.958 761.891 224.875C756.245 216.328 749.933 208.36 743.036 201.075C728.921 185.897 712.694 172.082 693.749 166.691C680.461 162.915 658.55 165.513 653.468 182.559C646.063 207.374 684.779 209.305 697.074 217.369C708.741 225 715.977 238.95 725.533 249.787C728.551 253.204 731.83 256.311 735.327 259.067Z" fill="url(#paint2_linear)"/>
<path d="M541.326 242.136C564.172 253.654 581.942 271.966 603.021 286.271C638.114 310.085 684.237 312.415 723.715 327.992C763.97 343.887 795.329 370.626 811.358 411.068C832.063 463.268 837.839 526.576 826.785 582.353C814.608 643.749 779.38 686.304 725.791 716.648C672.234 746.974 611.785 763.44 550.853 770.001C544.973 770.639 539.095 771.16 533.188 771.583C400.502 781.019 220.77 745.83 166.271 606.187C165.772 604.911 165.29 603.634 164.805 602.339C159.112 586.757 155.304 570.549 153.464 554.061C146.794 495.62 152.831 430.24 169.798 373.938C181.207 336.035 208.933 302.806 238.847 278.466C280.875 244.272 334.128 232.769 387.404 225.518C426.855 220.15 471.363 216.224 509.831 228.937C520.644 232.544 531.172 236.956 541.326 242.136Z" fill="url(#paint3_linear)"/>
</g>
<path d="M467.175 455.624C468.776 459.434 473.162 461.225 476.972 459.624L492.662 453.032C500.649 449.676 509.309 448.192 517.952 448.793C520.529 448.973 523.197 448.485 525.706 447.228C532.353 443.898 535.561 436.005 533.123 428.981C530.262 420.735 521.098 416.735 513.177 420.063C511.032 420.964 509.206 422.307 507.763 423.942C501.971 430.503 494.931 435.846 486.862 439.236L471.175 445.827C467.365 447.427 465.574 451.814 467.175 455.624Z" fill="#FB4C47"/>
<path d="M392.515 539.692C389.352 538.4 385.741 539.918 384.449 543.081L379.13 556.108C376.423 562.739 372.228 568.669 366.824 573.37C365.212 574.772 363.938 576.617 363.206 578.818C361.267 584.651 364.005 591.141 369.537 593.822C376.031 596.97 383.726 593.951 386.411 587.375C387.139 585.594 387.42 583.742 387.309 581.943C386.859 574.721 387.852 567.482 390.587 560.783L395.905 547.759C397.196 544.595 395.678 540.983 392.515 539.692Z" fill="#C63F3B"/>
<path d="M440.488 422.205C443.798 423.556 447.577 421.969 448.929 418.658L454.494 405.027C457.328 398.088 461.717 391.882 467.372 386.963C469.058 385.496 470.392 383.566 471.158 381.262C473.187 375.158 470.321 368.367 464.533 365.561C457.738 362.267 449.684 365.427 446.875 372.308C446.114 374.172 445.819 376.11 445.936 377.993C446.406 385.55 445.368 393.125 442.506 400.135L436.941 413.764C435.59 417.074 437.178 420.853 440.488 422.205Z" fill="#C63F3B"/>
<path d="M438.948 524.774C435.138 526.374 433.346 530.761 434.947 534.571L441.539 550.261C444.895 558.248 446.38 566.908 445.778 575.551C445.599 578.127 446.087 580.796 447.343 583.304C450.674 589.952 458.566 593.16 465.59 590.722C473.837 587.86 477.836 578.697 474.508 570.776C473.607 568.63 472.264 566.805 470.629 565.362C464.068 559.57 458.726 552.53 455.336 544.461L448.745 528.774C447.144 524.964 442.758 523.173 438.948 524.774Z" fill="#FB4C47"/>
<path d="M470.627 565.363C464.066 559.57 458.723 552.531 455.333 544.462L448.742 528.774C447.141 524.964 442.755 523.173 438.944 524.774C435.134 526.375 433.343 530.761 434.944 534.571L441.535 550.259C444.926 558.328 450.268 565.367 456.829 571.16C458.464 572.603 459.807 574.428 460.708 576.574C462.852 581.677 461.951 587.293 458.837 591.41C461.059 591.698 463.367 591.494 465.588 590.723C473.834 587.861 477.834 578.697 474.506 570.777C473.605 568.631 472.262 566.806 470.627 565.363Z" fill="#C63F3B"/>
<path d="M355.029 469.224C367.476 463.994 373.326 449.665 368.097 437.219C362.867 424.772 348.538 418.922 336.092 424.151C323.645 429.381 317.795 443.71 323.024 456.156C328.254 468.603 342.583 474.453 355.029 469.224Z" fill="#FF8F8C"/>
<path d="M336.097 424.15C333.69 425.162 331.533 426.516 329.652 428.129C339.947 427.232 350.086 432.976 354.304 443.015C358.522 453.055 355.528 464.316 347.682 471.042C350.15 470.827 352.627 470.234 355.034 469.223C367.481 463.994 373.331 449.665 368.102 437.218C362.872 424.771 348.543 418.921 336.097 424.15Z" fill="#FB4C47"/>
<path d="M449.405 549.669C490.046 532.593 509.149 485.805 492.074 445.165C474.999 404.524 428.211 385.421 387.57 402.496C346.929 419.571 327.826 466.359 344.901 507C361.977 547.641 408.765 566.744 449.405 549.669Z" fill="#FB4C47"/>
<path d="M387.57 402.495C385.244 403.473 382.991 404.552 380.808 405.718C419.675 393.481 462.18 412.647 478.277 450.961C494.375 489.274 478.315 533.047 442.371 552.242C444.731 551.499 447.079 550.645 449.406 549.668C490.047 532.592 509.15 485.805 492.075 445.164C475 404.523 428.211 385.42 387.57 402.495Z" fill="#C63F3B"/>
<path d="M441.796 454.281C450.051 450.813 453.932 441.309 450.463 433.054C446.995 424.798 437.491 420.918 429.236 424.387C420.98 427.855 417.1 437.359 420.569 445.614C424.037 453.869 433.541 457.75 441.796 454.281Z" fill="#C63F3B"/>
<path d="M429.234 424.387C426.745 425.433 424.657 427.03 423.045 428.974C428.874 429.458 434.242 433.085 436.664 438.851C439.087 444.617 437.921 450.989 434.186 455.492C436.703 455.701 439.305 455.327 441.795 454.281C450.05 450.813 453.93 441.309 450.462 433.054C446.993 424.799 437.49 420.918 429.234 424.387Z" fill="white"/>
<path d="M408.514 525.999C414.103 523.651 416.729 517.217 414.381 511.629C412.033 506.041 405.6 503.414 400.012 505.762C394.423 508.11 391.797 514.543 394.145 520.132C396.493 525.72 402.926 528.347 408.514 525.999Z" fill="white"/>
<path d="M497.278 523.422C504.898 520.22 508.48 511.447 505.278 503.827C502.076 496.207 493.304 492.625 485.683 495.826C478.063 499.028 474.481 507.801 477.683 515.421C480.885 523.041 489.657 526.623 497.278 523.422Z" fill="#FB4C47"/>
<path d="M485.683 495.827C483.169 496.883 481.097 498.549 479.561 500.576C484.686 501.23 489.334 504.518 491.48 509.625C493.625 514.731 492.721 520.353 489.601 524.471C492.124 524.793 494.763 524.479 497.277 523.423C504.898 520.221 508.479 511.448 505.278 503.828C502.076 496.208 493.303 492.625 485.683 495.827Z" fill="#C63F3B"/>
<path d="M369.791 496.54C371.392 500.35 369.602 504.737 365.791 506.338L350.102 512.93C342.114 516.286 334.993 521.432 329.373 528.026C327.698 529.992 325.482 531.556 322.828 532.468C315.797 534.885 307.915 531.652 304.604 524.995C300.717 517.179 304.275 507.835 312.195 504.507C314.341 503.605 316.578 503.242 318.755 503.355C327.495 503.81 336.238 502.522 344.307 499.131L359.995 492.54C363.804 490.939 368.191 492.73 369.791 496.54Z" fill="#C63F3B"/>
<path d="M398.035 427.389C401.845 425.788 403.637 421.402 402.036 417.592L395.443 401.902C392.088 393.915 390.603 385.255 391.205 376.612C391.384 374.035 390.896 371.367 389.639 368.858C386.309 362.211 378.417 359.003 371.392 361.441C363.146 364.302 359.146 373.466 362.474 381.387C363.376 383.533 364.719 385.358 366.354 386.801C372.915 392.593 378.257 399.633 381.647 407.702L388.239 423.389C389.839 427.199 394.225 428.99 398.035 427.389Z" fill="#FB4C47"/>
<path d="M389.64 368.858C386.31 362.211 378.418 359.003 371.393 361.441C368.459 362.458 366.067 364.277 364.347 366.551C369.154 367.174 373.565 370.11 375.843 374.655C377.099 377.164 377.588 379.832 377.408 382.409C376.806 391.052 378.291 399.712 381.647 407.699L388.239 423.389C389.839 427.199 394.226 428.99 398.036 427.389C401.847 425.788 403.637 421.402 402.036 417.592L395.444 401.902C392.088 393.915 390.604 385.255 391.206 376.612C391.385 374.035 390.898 371.367 389.64 368.858Z" fill="#C63F3B"/>
<path d="M514.738 420.452C512.578 421.313 510.729 422.622 509.257 424.229C508.997 424.513 508.731 424.792 508.465 425.071C513.903 425.841 518.756 429.585 520.612 435.269C522.2 440.131 521.107 445.354 518.087 449.184C518.385 449.205 518.684 449.223 518.982 449.249C521.554 449.476 524.229 449.037 526.759 447.827C533.463 444.621 536.813 436.793 534.506 429.73C531.798 421.436 522.714 417.272 514.738 420.452Z" fill="#C63F3B"/>
<g opacity="0.63">
<path d="M573.882 595.025C575.098 596.741 577.475 597.147 579.192 595.931L586.261 590.925C589.86 588.376 594 586.683 598.361 586.028C599.661 585.833 600.933 585.296 602.041 584.395C604.977 582.006 605.7 577.73 603.714 574.509C601.382 570.727 596.387 569.75 592.818 572.278C591.852 572.963 591.093 573.831 590.556 574.803C588.402 578.702 585.493 582.134 581.857 584.709L574.789 589.715C573.072 590.93 572.666 593.308 573.882 595.025Z" fill="#FFC700"/>
<path d="M540.189 635.854C538.475 635.561 536.848 636.714 536.555 638.428L535.349 645.488C534.735 649.082 533.305 652.492 531.138 655.424C530.492 656.298 530.062 657.355 529.942 658.53C529.622 661.643 531.698 664.565 534.743 665.287C538.317 666.135 541.808 663.786 542.417 660.222C542.582 659.257 542.517 658.305 542.263 657.424C541.243 653.884 540.938 650.178 541.558 646.547L542.764 639.489C543.056 637.774 541.903 636.147 540.189 635.854Z" fill="#D09700"/>
<path d="M551.068 572.179C552.862 572.485 554.565 571.28 554.871 569.486L556.133 562.098C556.775 558.337 558.272 554.769 560.539 551.701C561.215 550.786 561.665 549.68 561.791 548.45C562.126 545.193 559.953 542.135 556.767 541.379C553.027 540.492 549.374 542.951 548.737 546.68C548.564 547.69 548.632 548.686 548.897 549.608C549.965 553.312 550.284 557.19 549.636 560.99L548.374 568.376C548.068 570.17 549.274 571.873 551.068 572.179Z" fill="#D09700"/>
<path d="M561.613 623.32C559.897 624.536 559.49 626.913 560.706 628.63L565.713 635.7C568.262 639.298 569.955 643.438 570.61 647.799C570.805 649.1 571.342 650.372 572.243 651.48C574.632 654.416 578.907 655.139 582.129 653.152C585.911 650.821 586.888 645.826 584.36 642.257C583.675 641.29 582.807 640.531 581.835 639.994C577.936 637.84 574.504 634.931 571.929 631.295L566.923 624.227C565.707 622.511 563.33 622.105 561.613 623.32Z" fill="#FFC700"/>
<path d="M581.835 639.993C577.935 637.838 574.504 634.929 571.929 631.294L566.923 624.225C565.707 622.509 563.329 622.103 561.613 623.318C559.896 624.534 559.49 626.912 560.706 628.628L565.712 635.697C568.287 639.332 571.718 642.241 575.618 644.396C576.589 644.932 577.458 645.691 578.143 646.658C579.771 648.957 579.943 651.848 578.85 654.237C579.986 654.135 581.11 653.779 582.129 653.151C585.911 650.819 586.887 645.824 584.36 642.255C583.675 641.288 582.806 640.529 581.835 639.993Z" fill="#D09700"/>
<path d="M513.789 604.973C519.397 601.002 520.723 593.236 516.751 587.628C512.779 582.02 505.014 580.694 499.406 584.665C493.798 588.637 492.471 596.403 496.443 602.011C500.415 607.619 508.181 608.945 513.789 604.973Z" fill="#D09700"/>
<path d="M499.406 584.665C498.322 585.433 497.4 586.344 496.642 587.353C501.659 585.772 507.331 587.507 510.535 592.031C513.739 596.554 513.493 602.48 510.336 606.688C511.539 606.309 512.705 605.741 513.789 604.973C519.397 601.001 520.724 593.236 516.752 587.628C512.78 582.02 505.014 580.694 499.406 584.665Z" fill="#FFC700"/>
<path d="M569.556 634.537C587.867 621.569 592.198 596.211 579.229 577.899C566.26 559.588 540.902 555.257 522.591 568.226C504.28 581.195 499.949 606.553 512.918 624.864C525.887 643.176 551.244 647.506 569.556 634.537Z" fill="#FFC700"/>
<path d="M522.597 568.225C521.549 568.968 520.549 569.753 519.593 570.573C537.556 560.204 560.793 565.039 573.019 582.302C585.245 599.565 582.094 623.088 566.351 636.592C567.441 635.962 568.514 635.279 569.562 634.537C587.874 621.568 592.205 596.21 579.236 577.899C566.267 559.587 540.909 555.256 522.597 568.225Z" fill="#D09700"/>
<path d="M550.679 590.759C552.033 589.8 552.353 587.925 551.394 586.571C550.435 585.216 548.56 584.896 547.206 585.855C545.851 586.814 545.531 588.69 546.49 590.044C547.449 591.398 549.325 591.718 550.679 590.759Z" fill="white"/>
<path d="M546.622 627.287C549.14 625.503 549.736 622.016 547.953 619.498C546.169 616.98 542.682 616.384 540.164 618.168C537.646 619.951 537.05 623.438 538.834 625.957C540.617 628.475 544.104 629.07 546.622 627.287Z" fill="white"/>
<path d="M528.987 603.846C532.842 601.116 533.754 595.777 531.023 591.922C528.293 588.067 522.954 587.155 519.099 589.885C515.243 592.616 514.332 597.955 517.062 601.81C519.793 605.665 525.131 606.577 528.987 603.846Z" fill="white"/>
<path d="M590.446 616.213C593.88 613.781 594.692 609.026 592.26 605.593C589.828 602.159 585.073 601.347 581.64 603.779C578.206 606.211 577.394 610.966 579.826 614.399C582.258 617.833 587.013 618.645 590.446 616.213Z" fill="#FFC700"/>
<path d="M581.641 603.779C580.509 604.582 579.663 605.638 579.123 606.815C581.742 606.574 584.415 607.696 586.045 609.996C587.674 612.297 587.845 615.19 586.749 617.581C588.038 617.463 589.315 617.016 590.448 616.214C593.882 613.782 594.693 609.027 592.262 605.593C589.83 602.16 585.075 601.347 581.641 603.779Z" fill="#D09700"/>
<path d="M524.137 616.919C525.353 618.636 524.947 621.013 523.23 622.229L516.161 627.236C512.562 629.785 509.591 633.128 507.526 637.025C506.911 638.187 505.982 639.208 504.764 639.954C501.536 641.931 497.263 641.194 494.883 638.251C492.09 634.796 492.826 629.76 496.395 627.233C497.362 626.548 498.433 626.121 499.528 625.937C503.921 625.199 508.124 623.594 511.759 621.019L518.828 616.013C520.544 614.797 522.921 615.203 524.137 616.919Z" fill="#D09700"/>
<path d="M530.539 579.443C532.255 578.227 532.662 575.85 531.446 574.133L526.439 567.064C523.89 563.465 522.197 559.325 521.542 554.964C521.347 553.664 520.81 552.392 519.909 551.284C517.521 548.348 513.245 547.625 510.023 549.611C506.241 551.943 505.265 556.938 507.792 560.507C508.477 561.474 509.346 562.232 510.317 562.769C514.217 564.924 517.648 567.832 520.223 571.468L525.229 578.536C526.445 580.253 528.822 580.659 530.539 579.443Z" fill="#FFC700"/>
<path d="M519.907 551.284C517.518 548.348 513.243 547.625 510.021 549.611C508.675 550.441 507.687 551.608 507.083 552.928C509.541 552.708 512.057 553.68 513.69 555.687C514.591 556.795 515.128 558.067 515.323 559.368C515.978 563.729 517.671 567.869 520.22 571.467L525.227 578.537C526.442 580.253 528.82 580.66 530.537 579.444C532.253 578.228 532.659 575.85 531.444 574.134L526.437 567.064C523.888 563.465 522.195 559.326 521.54 554.965C521.345 553.664 520.808 552.392 519.907 551.284Z" fill="#D09700"/>
</g>
<path d="M625.172 511.392C622.815 510.841 620.458 512.305 619.907 514.663L617.64 524.369C616.486 529.311 614.213 533.928 610.957 537.819C609.986 538.98 609.3 540.413 609.033 542.034C608.328 546.332 610.968 550.566 615.137 551.825C620.031 553.302 625.078 550.331 626.223 545.431C626.533 544.104 626.523 542.777 626.244 541.53C625.124 536.528 625.01 531.353 626.176 526.361L628.443 516.657C628.994 514.3 627.529 511.942 625.172 511.392Z" fill="#1DB776"/>
<path d="M610.973 447.088C612.672 446.032 613.194 443.798 612.138 442.098L607.789 435.097C605.575 431.534 604.205 427.506 603.833 423.327C603.722 422.081 603.286 420.843 602.493 419.739C600.393 416.814 596.375 415.882 593.201 417.583C589.476 419.581 588.262 424.268 590.458 427.802C591.053 428.759 591.834 429.529 592.726 430.095C596.305 432.364 599.397 435.323 601.633 438.923L605.982 445.922C607.039 447.622 609.273 448.144 610.973 447.088Z" fill="#128E5A"/>
<path d="M650.196 510.223C648.417 511.329 647.871 513.666 648.976 515.445L653.527 522.771C655.844 526.5 657.277 530.715 657.666 535.087C657.782 536.391 658.239 537.687 659.069 538.842C661.266 541.903 665.471 542.878 668.792 541.098C672.69 539.008 673.96 534.103 671.663 530.405C671.04 529.403 670.222 528.597 669.289 528.005C665.544 525.63 662.309 522.534 659.968 518.767L655.418 511.443C654.312 509.664 651.974 509.118 650.196 510.223Z" fill="#128E5A"/>
<path d="M602.083 474.233C602.633 471.876 601.169 469.518 598.812 468.968L589.105 466.701C584.164 465.546 579.547 463.273 575.655 460.017C574.495 459.046 573.062 458.36 571.44 458.094C567.143 457.388 562.909 460.028 561.65 464.197C560.172 469.092 563.143 474.138 568.043 475.283C569.371 475.593 570.698 475.584 571.944 475.304C576.946 474.184 582.121 474.071 587.113 475.237L596.818 477.504C599.175 478.054 601.532 476.59 602.083 474.233Z" fill="#1DB776"/>
<path d="M571.946 475.305C576.948 474.184 582.123 474.071 587.115 475.237L596.82 477.504C599.177 478.054 601.534 476.59 602.085 474.233C602.635 471.876 601.171 469.519 598.814 468.968L589.109 466.701C584.117 465.535 578.942 465.648 573.94 466.769C572.693 467.048 571.366 467.057 570.039 466.747C566.882 466.01 564.528 463.652 563.646 460.76C562.746 461.715 562.05 462.879 561.652 464.198C560.174 469.092 563.145 474.139 568.045 475.283C569.372 475.593 570.699 475.584 571.946 475.305Z" fill="#128E5A"/>
<path d="M657.274 453.534C655.475 461.234 660.259 468.935 667.959 470.733C675.659 472.532 683.359 467.748 685.158 460.048C686.957 452.348 682.173 444.647 674.473 442.849C666.772 441.05 659.072 445.834 657.274 453.534Z" fill="#128E5A"/>
<path d="M685.16 460.049C685.508 458.56 685.607 457.072 685.489 455.625C682.375 460.816 676.166 463.649 669.955 462.199C663.744 460.748 659.433 455.457 658.941 449.424C658.194 450.668 657.624 452.047 657.276 453.536C655.477 461.236 660.261 468.936 667.961 470.735C675.661 472.534 683.362 467.749 685.16 460.049Z" fill="#1DB776"/>
<path d="M586.681 470.637C580.808 495.779 596.429 520.922 621.572 526.795C646.714 532.668 671.857 517.047 677.73 491.904C683.603 466.762 667.982 441.619 642.839 435.746C617.697 429.873 592.554 445.494 586.681 470.637Z" fill="#1DB776"/>
<path d="M677.739 491.903C678.075 490.464 678.337 489.025 678.535 487.589C670.977 510.227 647.277 523.795 623.574 518.258C599.871 512.722 584.634 490.058 587.887 466.415C587.428 467.79 587.026 469.196 586.69 470.636C580.817 495.779 596.438 520.921 621.58 526.794C646.723 532.667 671.866 517.046 677.739 491.903Z" fill="#128E5A"/>
<path d="M634.529 499.818C633.336 504.925 636.509 510.032 641.616 511.225C646.723 512.418 651.83 509.245 653.023 504.138C654.216 499.031 651.043 493.924 645.936 492.731C640.829 491.538 635.722 494.711 634.529 499.818Z" fill="#128E5A"/>
<path d="M653.033 504.137C653.393 502.597 653.353 501.057 652.985 499.625C650.752 502.223 647.187 503.521 643.62 502.688C640.053 501.855 637.431 499.111 636.58 495.793C635.616 496.914 634.898 498.277 634.538 499.817C633.346 504.924 636.519 510.031 641.626 511.224C646.733 512.417 651.84 509.244 653.033 504.137Z" fill="white"/>
<path d="M611.964 459.38C611.157 462.837 613.305 466.295 616.762 467.102C620.219 467.91 623.677 465.762 624.484 462.305C625.292 458.847 623.144 455.39 619.686 454.582C616.229 453.775 612.772 455.923 611.964 459.38Z" fill="white"/>
<path d="M582.671 502.36C581.57 507.075 584.499 511.79 589.214 512.891C593.929 513.993 598.644 511.063 599.745 506.348C600.846 501.633 597.917 496.918 593.202 495.817C588.487 494.716 583.772 497.645 582.671 502.36Z" fill="#1DB776"/>
<path d="M599.749 506.347C600.112 504.792 600.034 503.237 599.601 501.811C597.529 504.017 594.371 505.091 591.212 504.353C588.052 503.615 585.697 501.253 584.817 498.357C583.796 499.444 583.038 500.803 582.674 502.359C581.573 507.074 584.503 511.789 589.217 512.89C593.932 513.991 598.648 511.062 599.749 506.347Z" fill="#128E5A"/>
<path d="M639.244 451.147C636.887 450.596 635.422 448.239 635.973 445.882L638.24 436.175C639.394 431.234 639.402 426.088 638.207 421.156C637.85 419.686 637.87 418.097 638.35 416.525C639.621 412.36 643.863 409.734 648.158 410.452C653.201 411.296 656.41 416.195 655.265 421.095C654.955 422.422 654.358 423.608 653.556 424.601C650.336 428.59 647.941 433.179 646.775 438.171L644.508 447.876C643.958 450.233 641.601 451.697 639.244 451.147Z" fill="#128E5A"/>
<path d="M662.332 488.307C661.781 490.664 663.246 493.022 665.603 493.572L675.31 495.84C680.251 496.994 684.868 499.267 688.76 502.523C689.92 503.494 691.353 504.18 692.975 504.446C697.272 505.152 701.506 502.512 702.765 498.343C704.242 493.449 701.272 488.402 696.372 487.257C695.044 486.947 693.717 486.957 692.471 487.236C687.468 488.356 682.294 488.47 677.302 487.304L667.597 485.037C665.24 484.486 662.883 485.95 662.332 488.307Z" fill="#1DB776"/>
<path d="M692.973 504.444C697.271 505.15 701.505 502.51 702.764 498.341C703.289 496.6 703.25 494.84 702.763 493.243C700.814 495.308 697.906 496.391 694.967 495.908C693.346 495.642 691.912 494.956 690.752 493.985C686.861 490.729 682.243 488.456 677.302 487.302L667.596 485.034C665.239 484.484 662.881 485.948 662.331 488.305C661.78 490.663 663.244 493.02 665.602 493.57L675.308 495.838C680.25 496.992 684.867 499.265 688.758 502.521C689.919 503.492 691.352 504.178 692.973 504.444Z" fill="#128E5A"/>
<path d="M626.221 545.437C626.53 544.111 626.521 542.784 626.242 541.538C626.193 541.318 626.148 541.096 626.102 540.875C623.911 543.231 620.486 544.308 617.132 543.295C614.264 542.429 612.121 540.155 611.292 537.42C611.182 537.556 611.074 537.694 610.961 537.828C609.991 538.988 609.305 540.42 609.039 542.042C608.334 546.337 610.972 550.569 615.14 551.828C620.032 553.305 625.076 550.335 626.221 545.437Z" fill="#128E5A"/>
<defs>
<linearGradient id="paint0_linear" x1="161.059" y1="668.687" x2="210.076" y2="804.827" gradientUnits="userSpaceOnUse">
<stop stop-color="#FFD8D8"/>
<stop offset="1" stop-color="#FFF8F8"/>
</linearGradient>
<linearGradient id="paint1_linear" x1="807.47" y1="323.694" x2="370.853" y2="86.345" gradientUnits="userSpaceOnUse">
<stop stop-color="#FFF8F8"/>
<stop offset="1" stop-color="#FFCFCF"/>
</linearGradient>
<linearGradient id="paint2_linear" x1="788.658" y1="260.028" x2="630.938" y2="204.506" gradientUnits="userSpaceOnUse">
<stop stop-color="#FFD7D7"/>
<stop offset="1" stop-color="#FFF9F9"/>
</linearGradient>
<linearGradient id="paint3_linear" x1="782.235" y1="694.48" x2="142.067" y2="377.53" gradientUnits="userSpaceOnUse">
<stop stop-color="#FFCFCF"/>
<stop offset="1" stop-color="#FFF8F8"/>
</linearGradient>
</defs>
</svg>
