<svg width="329" height="462" viewBox="0 0 329 462" fill="none" xmlns="http://www.w3.org/2000/svg">
<path opacity="0.1" d="M491.128 260.633C485.129 260.382 479.9 264.978 478.353 271.364C469.055 271.98 458.438 272.098 446.796 271.212C440.321 270.708 434.168 269.948 428.417 269.029C428.462 267.909 428.492 266.777 428.506 265.645C428.574 260.138 428.241 254.72 427.572 249.415C430.536 247.174 434.237 244.825 438.715 242.829C446.468 239.338 453.698 238.153 459.273 237.855C461.925 244.174 468.153 247.908 474.174 246.389C480.963 244.68 484.937 236.977 483.021 229.182C481.121 221.385 474.094 216.439 467.305 218.148C461.124 219.712 457.276 226.247 458.084 233.299C453.181 236.046 445.898 239 436.925 239.114C432.502 239.178 428.631 238.528 425.496 237.713C423.602 229.467 420.841 221.554 417.278 214.08C421.183 210.589 425.794 206.894 431.186 203.338C438.991 198.174 446.507 194.504 453.1 191.882C457.316 197.007 464.11 198.777 469.415 195.753C475.508 192.287 477.304 183.781 473.447 176.774C469.59 169.769 461.5 166.909 455.407 170.385C450.118 173.398 448.055 180.214 450.149 186.539C444.46 190.904 437.475 195.501 429.109 199.574C423.423 202.359 417.986 204.463 413.066 206.053C409.143 199.2 404.544 192.797 399.348 186.941C401.467 179.513 404.989 170.851 410.922 162.195C416.496 154.102 422.635 148.22 427.841 144.096C433.48 147.74 440.637 147.273 444.765 142.617C449.459 137.343 448.511 128.709 442.623 123.33C436.766 117.939 428.211 117.843 423.533 123.119C419.405 127.775 419.636 135.033 423.8 140.378C420.396 145.928 415.267 152.801 407.78 159.315C399.519 166.503 391.262 170.766 384.973 173.284C377.922 167.665 370.223 162.875 361.985 159.06C363.223 155.689 364.861 152.301 366.993 148.978C368.701 146.344 370.534 144.031 372.378 142.013C378.651 144.696 385.745 142.908 388.988 137.487C392.638 131.434 390.122 123.121 383.373 118.935C376.624 114.747 368.208 116.259 364.558 122.324C361.364 127.654 362.922 134.725 367.927 139.198C366.839 142.016 365.526 144.938 363.957 147.912C362.175 151.336 360.253 154.486 358.222 157.397C357.38 157.044 356.554 156.705 355.712 156.388C345.894 152.516 335.405 150.018 324.449 149.081C322.706 144.129 321.209 138.646 320.181 132.632C318.097 120.361 318.643 109.711 319.778 101.72C326.242 100.544 331.125 95.4628 331.2 89.3021C331.288 82.2024 324.958 76.3685 317.057 76.2716C309.14 76.1746 302.653 81.8513 302.566 88.951C302.49 95.2171 307.422 100.49 314.015 101.71C315.355 109.615 316.162 120.667 313.802 133.438C312.743 139.06 311.228 144.176 309.479 148.803C298.953 149.276 288.825 151.213 279.239 154.417C277.941 152.257 276.772 149.992 275.735 147.324C273.692 142.04 272.843 137.103 272.526 132.997C278.743 129.805 282.003 122.989 279.907 116.899C277.595 110.201 269.669 106.93 262.197 109.596C254.742 112.262 250.562 119.851 252.89 126.551C254.895 132.33 261.065 135.547 267.51 134.609C269.345 138.558 271.093 143.107 272.435 148.266C273.167 150.998 273.693 153.668 274.092 156.278C265.383 159.66 257.203 164.109 249.666 169.461C245.776 166.525 241.794 163.123 237.868 159.147C228.834 149.991 222.85 140.64 218.935 133.162C223.433 128.228 224.303 121.096 220.644 116.13C216.452 110.448 207.92 109.749 201.587 114.568C195.271 119.389 193.538 127.901 197.715 133.582C201.436 138.602 208.51 139.723 214.487 136.592C220.2 141.928 227.616 150.325 233.28 162.335C235.878 167.827 237.665 173.16 238.913 178.127C237.702 179.231 236.475 180.37 235.295 181.533C229.396 187.402 224.096 193.916 219.54 200.978C216.916 200.176 214.198 199.21 211.419 198.034C202.383 194.207 195.402 189.384 190.345 185.195C192.595 178.803 190.557 171.852 185.199 168.782C179.127 165.294 171.047 168.14 167.162 175.14C163.261 182.136 165.04 190.637 171.144 194.124C176.486 197.191 183.372 195.358 187.603 190.116C193.769 192.368 201.451 195.954 209.346 201.784C211.703 203.526 213.852 205.314 215.857 207.11C209.411 218.575 204.849 231.279 202.593 244.797C197.144 245.203 191.268 245.358 184.966 245.082C175.967 244.692 167.856 243.52 160.77 242.038C160.698 234.953 156.11 228.967 149.797 228.215C142.848 227.387 136.471 233.186 135.543 241.166C134.631 249.146 139.508 256.284 146.442 257.109C152.627 257.845 158.333 253.328 160.186 246.702C167.463 246.941 175.627 247.703 184.466 249.36C190.598 250.507 196.247 251.944 201.48 253.528C201.187 256.601 201.037 259.71 200.998 262.856C200.907 270.327 201.503 277.641 202.757 284.741C196.674 288.719 188.318 293.213 177.697 296.311C168.389 299.027 160.029 299.888 153.371 300.014C151.054 293.686 145.165 289.684 139.133 290.789C132.269 292.051 127.82 299.481 129.224 307.388C130.627 315.295 137.346 320.681 144.209 319.419C150.161 318.328 154.27 312.625 154.367 305.993C161.21 303.826 169.28 301.811 178.443 300.548C188.964 299.097 198.4 298.986 206.344 299.434C209.401 309.248 213.757 318.485 219.161 326.957C216.534 329.016 213.619 331.043 210.324 332.931C204.038 336.549 198.024 338.773 192.803 340.195C189.361 334.445 182.818 331.686 177.107 333.948C170.611 336.535 167.653 344.696 170.531 352.174C172.341 356.867 176.019 360.192 180.124 361.363C182.541 362.064 185.112 362.014 187.534 361.053C188.24 360.767 188.931 360.408 189.559 359.98C194.322 356.856 196.414 350.284 194.496 343.966C199.444 341.449 205.221 338.967 211.855 336.943C216.133 335.646 220.199 334.71 224.023 334.024C227.446 338.639 231.224 342.977 235.278 346.988C235.656 347.37 236.051 347.753 236.429 348.11C233.575 354.374 229.299 361.977 222.899 369.66C216.629 377.18 210.145 382.631 204.687 386.471C199.324 382.498 192.22 382.495 187.809 386.817C182.768 391.744 183.14 400.431 188.641 406.219C194.109 411.994 202.657 412.69 207.682 407.761C212.061 403.485 212.355 396.366 208.752 390.79C213.067 385.215 218.683 378.939 225.831 372.763C233.526 366.134 241.089 361.249 247.678 357.661C256.252 364.017 265.751 369.194 275.906 372.94C275.459 376.839 274.721 381.04 273.533 385.45C270.957 395.056 267.191 402.735 263.786 408.38C257.242 406.965 250.725 409.929 248.435 415.728C245.848 422.314 249.695 430.075 257.034 433.067C264.356 436.058 272.406 433.137 275.025 426.54C277.282 420.812 274.681 414.198 269.122 410.614C270.786 403.781 273.392 395.709 277.457 387.054C279.456 382.834 281.562 378.99 283.712 375.49C291.555 377.745 299.726 379.167 308.181 379.635C309.471 386.376 310.496 393.912 310.938 402.139C311.602 414.378 310.815 425.198 309.556 434.123C303.125 435.307 298.257 440.389 298.182 446.535C298.095 453.635 304.425 459.467 312.357 459.564C320.258 459.661 326.729 453.986 326.816 446.886C326.891 440.764 322.182 435.575 315.813 434.211C314.856 425.058 314.413 414.249 315.168 402.191C315.683 394.057 316.685 386.557 317.917 379.778C326.764 379.544 335.352 378.27 343.568 376.07C344.255 377.304 344.926 378.587 345.58 379.906C349.927 388.604 352.222 396.737 353.435 403.238C347.696 406.53 344.711 413.028 346.699 418.88C348.947 425.594 356.856 428.924 364.343 426.325C371.813 423.716 376.057 416.16 373.792 409.445C371.79 403.487 365.333 400.198 358.678 401.344C355.695 395.988 352.25 387.912 351.147 377.614C351.003 376.338 350.907 375.088 350.858 373.859C360.011 370.763 368.652 366.493 376.618 361.235C381.658 365.508 386.96 370.597 392.217 376.631C400.309 385.907 406.167 395.027 410.382 402.768C405.948 407.691 405.111 414.771 408.738 419.71C412.947 425.388 421.462 426.083 427.795 421.264C434.112 416.448 435.845 407.941 431.668 402.252C428.041 397.347 421.175 396.153 415.297 399.043C409.088 392.49 402.213 384.209 395.617 374.054C391.356 367.49 387.842 361.127 384.962 355.157C388.17 352.59 391.237 349.855 394.178 346.954C398.961 342.201 403.351 337.029 407.25 331.486C414.296 333.578 422.416 336.615 431.013 341.131C439.308 345.469 446.21 350.212 451.759 354.62C449.559 360.892 451.487 367.733 456.717 370.84C462.739 374.441 470.865 371.733 474.877 364.812C478.889 357.878 477.238 349.353 471.216 345.751C465.954 342.61 459.054 344.284 454.745 349.397C448.518 346.9 440.965 343.141 433.165 337.418C425.065 331.48 418.965 325.142 414.562 319.685C417.649 313.968 420.277 307.949 422.397 301.676C425.779 301.836 429.367 302.186 433.063 302.798C442.606 304.378 450.537 307.222 456.632 310.033C456.023 316.75 459.682 322.952 465.585 324.57C472.331 326.422 479.477 321.637 481.552 313.879C483.61 306.119 479.827 298.335 473.065 296.483C467.146 294.851 460.894 298.362 458.057 304.518C451.567 303.897 443.237 302.343 434.167 298.648C430.737 297.237 427.563 295.676 424.678 294.048C426.202 288.23 427.297 282.237 427.899 276.088C433.795 275.677 440.055 275.447 446.647 275.515C458.267 275.623 468.823 276.601 478.081 277.965C479.119 284.454 483.958 289.444 489.941 289.707C496.93 289.992 502.865 283.719 503.171 275.691C503.493 267.663 498.101 260.919 491.128 260.633Z" fill="#FA5652"/>
<path opacity="0.1" d="M146.439 75.0752C144.026 74.9745 141.922 76.8232 141.3 79.392C137.56 79.6398 133.289 79.6872 128.606 79.3309C126.001 79.1281 123.526 78.8224 121.212 78.4528C121.231 78.0022 121.243 77.547 121.248 77.0916C121.276 74.8763 121.142 72.6968 120.873 70.5627C122.065 69.6613 123.554 68.7165 125.355 67.9133C128.474 66.509 131.382 66.0325 133.625 65.9126C134.692 68.4545 137.197 69.9565 139.619 69.3455C142.35 68.658 143.948 65.5596 143.178 62.4237C142.414 59.2872 139.587 57.2978 136.856 57.9853C134.369 58.6144 132.822 61.243 133.146 64.0799C131.174 65.1851 128.244 66.3731 124.635 66.4189C122.856 66.4447 121.299 66.1835 120.038 65.8556C119.276 62.5384 118.165 59.3552 116.732 56.3489C118.303 54.9445 120.158 53.4582 122.326 52.0279C125.466 49.9505 128.49 48.474 131.142 47.4196C132.837 49.4812 135.571 50.1932 137.705 48.9765C140.155 47.5823 140.878 44.1606 139.327 41.342C137.775 38.524 134.521 37.3737 132.07 38.7718C129.942 39.984 129.112 42.7258 129.954 45.2702C127.666 47.0259 124.856 48.875 121.491 50.5138C119.204 51.634 117.017 52.4802 115.037 53.1201C113.459 50.3631 111.61 47.7875 109.519 45.432C110.371 42.4439 111.788 38.9596 114.175 35.4775C116.417 32.2219 118.887 29.8558 120.981 28.1969C123.249 29.6627 126.128 29.4749 127.789 27.6019C129.677 25.4805 129.296 22.0075 126.927 19.8437C124.571 17.6748 121.13 17.6365 119.248 19.7586C117.588 21.6316 117.68 24.5511 119.355 26.7011C117.986 28.9339 115.923 31.6985 112.911 34.3189C109.588 37.2102 106.266 38.9252 103.737 39.938C100.9 37.6778 97.8033 35.7511 94.4893 34.2164C94.9876 32.8602 95.6464 31.4975 96.504 30.1607C97.1912 29.1011 97.9283 28.1707 98.6703 27.359C101.194 28.4384 104.047 27.7192 105.352 25.5384C106.82 23.1033 105.808 19.7595 103.093 18.0756C100.378 16.391 96.9929 16.9993 95.5246 19.439C94.2397 21.5828 94.8662 24.4273 96.8798 26.2266C96.442 27.3604 95.9139 28.5355 95.2828 29.7321C94.566 31.1091 93.7927 32.3764 92.9756 33.5473C92.637 33.4055 92.3048 33.269 91.966 33.1415C88.0167 31.584 83.7972 30.579 79.3903 30.2021C78.6891 28.2101 78.0868 26.0046 77.6734 23.5856C76.8349 18.6494 77.0544 14.365 77.5113 11.1508C80.1113 10.6777 82.0756 8.63359 82.106 6.15537C82.1411 3.29945 79.5948 0.952697 76.4167 0.913728C73.2321 0.87468 70.6226 3.15822 70.5876 6.01413C70.5567 8.53476 72.5406 10.656 75.1931 11.1465C75.7321 14.3266 76.0565 18.7723 75.1073 23.9097C74.6814 26.171 74.0718 28.2292 73.3683 30.0904C69.1342 30.2806 65.0599 31.0598 61.2041 32.3487C60.6817 31.4798 60.2113 30.5685 59.7942 29.4953C58.9727 27.3701 58.631 25.3838 58.5035 23.7322C61.0044 22.4482 62.3159 19.7064 61.4726 17.2566C60.5424 14.5624 57.3542 13.2466 54.3487 14.3188C51.3495 15.3912 49.6682 18.4442 50.6048 21.1391C51.4111 23.4638 53.8932 24.758 56.4857 24.3807C57.2239 25.9693 57.9271 27.7989 58.4668 29.8744C58.7615 30.9734 58.9731 32.0474 59.1336 33.0971C55.6301 34.4576 52.3396 36.2473 49.308 38.4003C47.7428 37.2192 46.1413 35.8509 44.562 34.2514C40.9277 30.5682 38.5207 26.8067 36.9458 23.7986C38.7553 21.8139 39.1052 18.9449 37.6335 16.9474C35.947 14.6615 32.5149 14.3806 29.9675 16.319C27.4265 18.2582 26.7296 21.6822 28.4097 23.9674C29.9068 25.9867 32.7524 26.4379 35.1566 25.1781C37.4549 27.3248 40.438 30.7025 42.7162 35.5336C43.7614 37.7432 44.48 39.8881 44.9821 41.8861C44.495 42.3303 44.0014 42.7888 43.5269 43.2566C41.1541 45.6174 39.0221 48.2375 37.1893 51.0786C36.1337 50.7557 35.0404 50.3672 33.9225 49.8941C30.2875 48.3548 27.4794 46.4147 25.4452 44.7293C26.3501 42.1581 25.5303 39.3621 23.375 38.1273C20.9328 36.724 17.6823 37.869 16.1195 40.6847C14.5502 43.499 15.2661 46.9187 17.7211 48.3215C19.87 49.5548 22.6403 48.8176 24.3422 46.709C26.8226 47.6149 29.9129 49.0575 33.0884 51.4028C34.0366 52.1034 34.9011 52.8225 35.7078 53.5449C33.1148 58.1571 31.2798 63.2673 30.3719 68.7053C28.1802 68.8683 25.8163 68.9306 23.2812 68.82C19.6614 68.6627 16.3986 68.1915 13.5484 67.5954C13.5191 64.7452 11.6736 62.3373 9.13441 62.0347C6.33873 61.7017 3.77366 64.0346 3.40039 67.2446C3.03353 70.4546 4.9954 73.3259 7.78467 73.6576C10.2726 73.9537 12.568 72.1367 13.3135 69.4716C16.2405 69.5675 19.5245 69.8739 23.0803 70.5406C25.5469 71.0021 27.8194 71.58 29.9243 72.2171C29.8064 73.4533 29.7461 74.7039 29.7306 75.9695C29.6937 78.9748 29.9338 81.917 30.4382 84.773C27.9913 86.3734 24.6299 88.1812 20.3572 89.4271C16.6129 90.5197 13.2503 90.866 10.5719 90.9167C9.63988 88.3712 7.27081 86.7613 4.84446 87.2059C2.08343 87.7136 0.293732 90.7026 0.858354 93.883C1.42297 97.064 4.12551 99.2306 6.88655 98.7229C9.28072 98.2838 10.9335 95.9899 10.9726 93.3219C13.7253 92.4501 16.9716 91.6398 20.6574 91.1317C24.8898 90.5481 28.6855 90.5033 31.8812 90.6835C33.1106 94.6314 34.8631 98.347 37.0367 101.755C35.9799 102.583 34.8076 103.399 33.4818 104.158C30.9532 105.613 28.5342 106.508 26.4338 107.08C25.0494 104.767 22.4174 103.657 20.1202 104.567C17.5067 105.608 16.317 108.891 17.4745 111.899C18.2027 113.787 19.6825 115.124 21.3335 115.595C22.3061 115.877 23.3402 115.857 24.3146 115.471C24.5985 115.355 24.8764 115.211 25.129 115.039C27.0451 113.782 27.8866 111.139 27.1151 108.597C29.1054 107.585 31.4293 106.586 34.0978 105.772C35.8187 105.25 37.4544 104.874 38.9925 104.598C40.3696 106.454 41.8894 108.199 43.5199 109.813C43.6722 109.967 43.8308 110.12 43.9831 110.264C42.8349 112.784 41.115 115.842 38.5406 118.933C36.0184 121.958 33.4101 124.151 31.2143 125.695C29.057 124.097 26.1994 124.096 24.425 125.835C22.3972 127.817 22.5471 131.311 24.7596 133.639C26.9594 135.962 30.3979 136.242 32.4192 134.26C34.1806 132.539 34.2991 129.676 32.8497 127.433C34.5853 125.19 36.8445 122.665 39.7197 120.181C42.8154 117.514 45.8576 115.549 48.5081 114.106C51.9572 116.663 55.7781 118.745 59.863 120.252C59.6832 121.821 59.3863 123.511 58.9087 125.285C57.8724 129.149 56.3576 132.238 54.9877 134.508C52.3554 133.939 49.7336 135.131 48.8125 137.464C47.7718 140.114 49.3196 143.236 52.2716 144.439C55.2171 145.642 58.4551 144.467 59.5087 141.814C60.4167 139.509 59.3705 136.849 57.1342 135.407C57.8036 132.659 58.8517 129.411 60.4869 125.93C61.2911 124.232 62.1384 122.686 63.0033 121.278C66.158 122.185 69.4452 122.757 72.8462 122.946C73.3652 125.657 73.7776 128.689 73.9553 131.998C74.2224 136.921 73.9058 141.274 73.3995 144.864C70.8122 145.34 68.8542 147.384 68.8239 149.857C68.7889 152.713 71.3352 155.059 74.5262 155.098C77.7043 155.137 80.3073 152.854 80.3423 149.998C80.3725 147.535 78.4781 145.448 75.9162 144.899C75.5311 141.217 75.3532 136.869 75.6567 132.019C75.8638 128.747 76.2668 125.73 76.7626 123.003C80.3213 122.909 83.7759 122.396 87.081 121.511C87.3574 122.008 87.6272 122.524 87.8904 123.054C89.6391 126.553 90.5622 129.825 91.0503 132.44C88.7416 133.764 87.5408 136.378 88.3403 138.732C89.2448 141.433 92.4262 142.772 95.4378 141.727C98.4431 140.677 100.15 137.638 99.2392 134.937C98.4338 132.54 95.8364 131.217 93.1594 131.678C91.9593 129.524 90.5736 126.275 90.1299 122.133C90.072 121.619 90.0333 121.116 90.0136 120.622C93.6956 119.377 97.1714 117.659 100.376 115.544C102.403 117.263 104.536 119.31 106.651 121.737C109.906 125.468 112.262 129.137 113.958 132.251C112.174 134.231 111.837 137.079 113.296 139.066C114.989 141.35 118.415 141.63 120.962 139.691C123.503 137.754 124.2 134.332 122.52 132.043C121.061 130.07 118.299 129.59 115.935 130.752C113.437 128.117 110.672 124.785 108.018 120.701C106.304 118.06 104.891 115.5 103.732 113.099C105.023 112.066 106.256 110.966 107.439 109.799C109.364 107.887 111.129 105.806 112.698 103.577C115.532 104.419 118.799 105.64 122.257 107.457C125.594 109.202 128.37 111.109 130.602 112.883C129.717 115.406 130.493 118.158 132.596 119.407C135.019 120.856 138.288 119.767 139.902 116.982C141.516 114.194 140.851 110.764 138.429 109.315C136.312 108.052 133.537 108.725 131.803 110.782C129.298 109.777 126.26 108.265 123.123 105.963C119.864 103.575 117.41 101.025 115.639 98.8298C116.881 96.5302 117.938 94.1089 118.791 91.5854C120.152 91.6497 121.595 91.7907 123.081 92.0366C126.92 92.6721 130.11 93.8165 132.562 94.9472C132.317 97.6492 133.789 100.144 136.164 100.795C138.877 101.54 141.752 99.6152 142.587 96.4944C143.415 93.3728 141.893 90.2414 139.173 89.4963C136.792 88.8401 134.277 90.2524 133.135 92.7288C130.525 92.4788 127.174 91.8539 123.526 90.3672C122.146 89.7997 120.869 89.172 119.708 88.5171C120.321 86.1765 120.762 83.7659 121.004 81.2923C123.376 81.1269 125.894 81.0345 128.546 81.0618C133.22 81.1054 137.466 81.4987 141.19 82.0474C141.608 84.6577 143.555 86.6649 145.962 86.7708C148.773 86.8855 151.16 84.3618 151.283 81.1325C151.413 77.9032 149.244 75.1905 146.439 75.0752Z" fill="#FA5652"/>
</svg>
